<svg xmlns="http://www.w3.org/2000/svg" data-name="Layer 1" viewBox="0 0 96 120" x="0px" y="0px"><title>Office</title><path d="M65,24.72H31A6.32,6.32,0,0,0,24.72,31V65A6.32,6.32,0,0,0,31,71.28H65A6.32,6.32,0,0,0,71.28,65V31A6.32,6.32,0,0,0,65,24.72ZM68.33,65A3.36,3.36,0,0,1,65,68.33H31A3.36,3.36,0,0,1,27.67,65V31A3.36,3.36,0,0,1,31,27.67H65A3.36,3.36,0,0,1,68.33,31Z"/><rect x="33.49" y="35.68" width="3.02" height="2.96"/><rect x="40.95" y="35.68" width="21.56" height="2.96"/><rect x="33.49" y="46.52" width="3.02" height="2.96"/><rect x="40.95" y="46.52" width="21.56" height="2.96"/><rect x="33.49" y="57.36" width="3.02" height="2.96"/><rect x="40.95" y="57.36" width="21.56" height="2.96"/><text x="0" y="111" fill="#000000" font-size="5px" font-weight="bold" font-family="'Helvetica Neue', Helvetica, Arial-Unicode, Arial, Sans-serif">Created by Muammar Khalid</text><text x="0" y="116" fill="#000000" font-size="5px" font-weight="bold" font-family="'Helvetica Neue', Helvetica, Arial-Unicode, Arial, Sans-serif">from the Noun Project</text></svg>