<svg xmlns:dc="http://purl.org/dc/elements/1.1/" xmlns:cc="http://creativecommons.org/ns#" xmlns:rdf="http://www.w3.org/1999/02/22-rdf-syntax-ns#" xmlns:svg="http://www.w3.org/2000/svg" xmlns="http://www.w3.org/2000/svg" xmlns:sodipodi="http://sodipodi.sourceforge.net/DTD/sodipodi-0.dtd" xmlns:inkscape="http://www.inkscape.org/namespaces/inkscape" version="1.1" x="0px" y="0px" viewBox="0 0 100 125"><g transform="translate(0,-952.36218)"><path style="text-indent:0;text-transform:none;direction:ltr;block-progression:tb;baseline-shift:baseline;color:#000000;enable-background:accumulate;" d="m 45.008979,966.36219 c -17.09014,0 -31.00898,13.91873 -31.00898,31.00893 0,17.09018 13.91882,31.00898 31.00898,31.00898 5.65487,0 10.96464,-1.499 15.53574,-4.1574 l 11.81592,11.8158 c 3.09811,3.0982 8.21768,3.0982 11.31578,0 3.09811,-3.098 3.09811,-8.2175 0,-11.3156 l -11.84718,-11.8473 c 2.64839,-4.5647 4.18871,-9.8611 4.18871,-15.50448 0,-17.0902 -13.91884,-31.00893 -31.00897,-31.00893 z m 0,6.00174 c 13.84653,0 25.00724,11.16063 25.00724,25.00719 0,13.84648 -11.16073,25.00728 -25.00724,25.00728 -13.84652,0 -25.00724,-11.1608 -25.00724,-25.00728 0,-13.84656 11.1607,-25.00719 25.00724,-25.00719 z m 23.28799,45.48197 11.12822,11.1282 c 0.82041,0.8203 0.82041,1.9929 0,2.8132 -0.8204,0.8205 -1.99291,0.8205 -2.81332,0 l -11.12822,-11.1282 c 0.9991,-0.8794 1.93413,-1.8139 2.81332,-2.8132 z" fill="#000000" fill-opacity="1" stroke="none" marker="none" visibility="visible" display="inline" overflow="visible"/></g><text x="0" y="115" fill="#000000" font-size="5px" font-weight="bold" font-family="'Helvetica Neue', Helvetica, Arial-Unicode, Arial, Sans-serif">Created by il Capitano</text><text x="0" y="120" fill="#000000" font-size="5px" font-weight="bold" font-family="'Helvetica Neue', Helvetica, Arial-Unicode, Arial, Sans-serif">from the Noun Project</text></svg>