<svg xmlns="http://www.w3.org/2000/svg" viewBox="0 0 32 40" x="0px" y="0px"><title>comment</title><g data-name="63-comment"><path d="M30,31a1.02,1.02,0,0,1-.2749-.0381l-6.4688-1.8486a15.0346,15.0346,0,1,1,5.857-5.8565l1.8481,6.4688A1,1,0,0,1,30,31ZM16,3a13,13,0,1,0,6.6147,24.1758,1.0173,1.0173,0,0,1,.7852-.1016l5.144,1.47-1.47-5.1445a.9991.9991,0,0,1,.1016-.7851A12.9791,12.9791,0,0,0,16,3Z"/></g><text x="0" y="47" fill="#000000" font-size="5px" font-weight="bold" font-family="'Helvetica Neue', Helvetica, Arial-Unicode, Arial, Sans-serif">Created by Ricki Tri Putra</text><text x="0" y="52" fill="#000000" font-size="5px" font-weight="bold" font-family="'Helvetica Neue', Helvetica, Arial-Unicode, Arial, Sans-serif">from the Noun Project</text></svg>