<svg xmlns="http://www.w3.org/2000/svg" xmlns:xlink="http://www.w3.org/1999/xlink" viewBox="0 0 100 125" version="1.1" x="0px" y="0px"><title>Icons Copy 2</title><desc>Created with Sketch.</desc><g stroke="none" stroke-width="1" fill="none" fill-rule="evenodd"><path d="M68.0025063,73.3316424 C68.0025063,68.1582422 63.9777327,63.8661625 58.7871652,63.5042573 C53.7685276,63.1543464 50.7461279,62.974511 50,62.974511 C49.2538538,62.974511 46.2313683,63.154354 41.2128355,63.504267 C36.0222666,63.8661653 31.9974937,68.158242 31.9974937,73.3316424 L31.9974937,75.2890952 C37.1551891,78.9961005 43.3775621,81.025489 50,81.025489 C56.6460683,81.025489 62.8643287,78.8595602 68.0025063,74.9095047 L68.0025063,73.3316424 Z M50,85 C41.5856101,85 33.9572392,82.0943645 28,77.2427668 L28,73.3316424 C28,66.0710758 33.6485346,60.0473958 40.9331962,59.5394926 C46.0915935,59.1798277 49.1138616,59 50,59 C50.8861384,59 53.9084065,59.1798277 59.0668045,59.539483 C66.3514654,60.0473958 72,66.0710758 72,73.3316424 L72,76.7871363 C66.1028339,81.8894057 58.4878349,85 50,85 Z" fill="#000000" fill-rule="nonzero"/><path d="M50,85 C30.6726279,85 15,69.3325915 15,50 C15,30.6674085 30.6726279,15 50,15 C69.3273721,15 85,30.6674085 85,50 C85,69.3325915 69.3273721,85 50,85 Z M50,80.9736103 C67.120985,80.9736103 80.9955885,67.1036274 80.9955885,50 C80.9955885,32.8963726 67.120985,19.0263897 50,19.0263897 C32.879015,19.0263897 19.0044115,32.8963726 19.0044115,50 C19.0044115,67.1036274 32.879015,80.9736103 50,80.9736103 Z" fill="#000000" fill-rule="nonzero"/><path d="M50,57 C42.2706034,57 36,50.7346061 36,43 C36,35.2653939 42.2706034,29 50,29 C57.7293966,29 64,35.2653939 64,43 C64,50.7346061 57.7293966,57 50,57 Z M50,52.9822078 C55.526624,52.9822078 60.0021484,48.5104015 60.0021484,43 C60.0021484,37.4895985 55.526624,33.0177922 50,33.0177922 C44.473376,33.0177922 39.9978516,37.4895985 39.9978516,43 C39.9978516,48.5104015 44.473376,52.9822078 50,52.9822078 Z" fill="#000000" fill-rule="nonzero"/></g><text x="0" y="115" fill="#000000" font-size="5px" font-weight="bold" font-family="'Helvetica Neue', Helvetica, Arial-Unicode, Arial, Sans-serif">Created by ekin tumer</text><text x="0" y="120" fill="#000000" font-size="5px" font-weight="bold" font-family="'Helvetica Neue', Helvetica, Arial-Unicode, Arial, Sans-serif">from the Noun Project</text></svg>