<svg xmlns="http://www.w3.org/2000/svg" data-name="Layer 1" viewBox="0 0 512 640" x="0px" y="0px"><title>h8</title><path d="M337,512H175A90.66,90.66,0,0,1,84.4,421.44V299H66.24c-41.63,0-55.87-18.15-60.65-29C0.72,259-3.12,235.68,26,203.69L180.36,34.16C200.41,12.13,227.27,0,256,0s55.59,12.13,75.64,34.16L486,203.69c29.12,32,25.29,55.28,20.41,66.32-4.78,10.82-19,29-60.65,29H427.6V421.44A90.66,90.66,0,0,1,337,512ZM256,28.34c-20.65,0-40.07,8.84-54.69,24.9L47,222.77c-13,14.26-18.9,28-15.44,35.78,3.29,7.45,16.6,12.09,34.73,12.09h46.5v150.8A62.29,62.29,0,0,0,175,483.66H337a62.29,62.29,0,0,0,62.22-62.22V270.64h46.5c18.13,0,31.43-4.63,34.73-12.09C483.94,250.74,478,237,465,222.77L310.69,53.24C296.07,37.18,276.65,28.34,256,28.34ZM256,438a75.71,75.71,0,1,1,75.71-75.71A75.79,75.79,0,0,1,256,438ZM256,315a47.37,47.37,0,1,0,47.37,47.37A47.42,47.42,0,0,0,256,315Z"/><text x="0" y="527" fill="#000000" font-size="5px" font-weight="bold" font-family="'Helvetica Neue', Helvetica, Arial-Unicode, Arial, Sans-serif">Created by i cons</text><text x="0" y="532" fill="#000000" font-size="5px" font-weight="bold" font-family="'Helvetica Neue', Helvetica, Arial-Unicode, Arial, Sans-serif">from the Noun Project</text></svg>