<svg width="30" height="30" viewBox="0 0 30 30" fill="none" xmlns="http://www.w3.org/2000/svg">
<path d="M12.9204 0C5.79952 0 0 5.79946 0 12.9204C0 20.0413 5.79951 25.8408 12.9204 25.8408C15.2766 25.8408 17.489 25.2162 19.3936 24.1085L24.3169 29.0318C25.6078 30.3227 27.741 30.3227 29.0318 29.0318C30.3227 27.7409 30.3227 25.6078 29.0318 24.317L24.0955 19.3806C25.199 17.4786 25.8408 15.2718 25.8408 12.9204C25.8408 5.79946 20.0413 0 12.9204 0V0ZM12.9204 2.50074C18.6898 2.50074 23.3401 7.15098 23.3401 12.9204C23.3401 18.6897 18.6898 23.3401 12.9204 23.3401C7.15102 23.3401 2.50072 18.6897 2.50072 12.9204C2.50072 7.15098 7.15102 2.50074 12.9204 2.50074ZM22.6237 21.4515L27.2605 26.0883C27.6023 26.4301 27.6023 26.9187 27.2605 27.2605C26.9187 27.6024 26.4301 27.6024 26.0883 27.2605L21.4515 22.6237C21.8678 22.2573 22.2574 21.8679 22.6237 21.4515Z" fill="black"/>
</svg>
