<svg width="31" height="31" viewBox="0 0 31 31" fill="none" xmlns="http://www.w3.org/2000/svg">
<path d="M21.0633 10.785C19.7258 9.20805 17.7295 8.2068 15.4993 8.2068C11.4717 8.2068 8.20677 11.4718 8.20677 15.4993C8.20677 19.5269 11.4717 22.7918 15.4993 22.7918C17.7403 22.7918 19.7451 21.7809 21.0827 20.1907C21.1939 21.3412 21.7772 22.2599 22.6265 22.8356C23.5712 23.4759 24.8361 23.6861 26.1295 23.3348C28.8949 22.5837 30.7094 19.6878 30.6485 15.4878C30.648 7.13189 23.8656 0.35 15.4993 0.35C7.13257 0.35 0.35 7.13257 0.35 15.4993C0.35 23.866 7.13257 30.6486 15.4993 30.6486C18.7839 30.6486 21.9125 29.5996 24.4985 27.6872L24.6191 27.598L24.5299 27.4774L23.6805 26.3288L23.5913 26.2082L23.4707 26.2974C21.1798 27.9916 18.4109 28.9201 15.4993 28.9201C8.0872 28.9201 2.0785 22.9114 2.0785 15.4993C2.0785 8.0872 8.0872 2.0785 15.4993 2.0785C22.9114 2.0785 28.9201 8.0872 28.9201 15.4993L28.9201 15.5015C28.9715 19.0311 27.5764 21.1507 25.6765 21.6667C24.8829 21.8822 24.1598 21.7706 23.6397 21.4316C23.1223 21.0942 22.7918 20.5232 22.7918 19.7848V15.7233V8.35677V8.20677H22.6418H21.2133H21.0633V8.35677V10.785ZM21.0633 15.4993C21.0633 18.5722 18.5722 21.0633 15.4993 21.0633C12.4264 21.0633 9.93528 18.5722 9.93528 15.4993C9.93528 12.4264 12.4264 9.9353 15.4993 9.9353C18.5722 9.9353 21.0633 12.4264 21.0633 15.4993Z" fill="black" stroke="black" stroke-width="0.3"/>
</svg>
