<svg width="56" height="68" viewBox="0 0 56 68" fill="none" xmlns="http://www.w3.org/2000/svg">
<path d="M12 12V7.99219C12 3.57365 15.5764 0 20.0053 0H47.9947C52.412 0 56 3.58526 56 7.99359V48.0064C56 52.4256 52.4237 56 47.9947 56H44V60.0064C44 64.4256 40.4237 68 35.9947 68H8.00533C3.58685 68 0 64.4185 0 60.0078V19.9922C0 15.5736 3.57645 12 8.00533 12H12ZM40 60.0064V19.9936C40 17.7951 38.2035 16 35.9947 16H8.00533C5.78489 16 4 17.7835 4 19.9922V60.0078C4 62.2081 5.79465 64 8.00533 64H35.9947C38.215 64 40 62.216 40 60.0064ZM44 52H47.9947C50.215 52 52 50.216 52 48.0064V7.99359C52 5.79509 50.2035 4 47.9947 4H20.0053C17.7849 4 16 5.78348 16 7.99219V12H35.9947C40.412 12 44 15.5853 44 19.9936V52ZM22 42C17.0294 42 13 37.9706 13 33C13 28.0294 17.0294 24 22 24C26.9706 24 31 28.0294 31 33C31 37.9706 26.9706 42 22 42ZM22 38C24.7614 38 27 35.7614 27 33C27 30.2386 24.7614 28 22 28C19.2386 28 17 30.2386 17 33C17 35.7614 19.2386 38 22 38ZM12 50C10.8954 50 10 49.1046 10 48C10 46.8954 10.8954 46 12 46H32C33.1046 46 34 46.8954 34 48C34 49.1046 33.1046 50 32 50H12ZM17 58C15.8954 58 15 57.1046 15 56C15 54.8954 15.8954 54 17 54H27C28.1046 54 29 54.8954 29 56C29 57.1046 28.1046 58 27 58H17Z" fill="black"/>
</svg>
