<svg width="30" height="32" viewBox="0 0 30 32" fill="none" xmlns="http://www.w3.org/2000/svg">
<path d="M10.1237 31.1H10.1238H19.616V31L19.616 31.1C21.0498 31.0991 22.4245 30.5293 23.4386 29.5157C24.4526 28.5021 25.023 27.1276 25.0246 25.6939V25.6938V18.6201H25.9886C27.2235 18.6201 28.0614 18.3505 28.6289 17.9929C29.1968 17.635 29.4871 17.1934 29.6338 16.8613C29.7836 16.5224 29.9154 15.9992 29.7898 15.3203C29.6643 14.6419 29.2832 13.8157 28.4204 12.8677L28.4204 12.8676L19.3759 2.93425C18.1829 1.62348 16.5826 0.9 14.8699 0.9C13.1572 0.9 11.5569 1.62347 10.3639 2.93424C10.3639 2.93424 10.3639 2.93425 10.3639 2.93425L1.31938 12.8676L1.31938 12.8676C0.456601 13.8155 0.0756489 14.642 -0.0498084 15.3207C-0.175337 15.9997 -0.0436293 16.5228 0.105914 16.8606C0.25265 17.1937 0.543306 17.6353 1.11131 17.993C1.67899 18.3504 2.51686 18.6195 3.75114 18.6195H4.7152L4.7152 25.6938L4.7152 25.6939C4.71678 27.1276 5.28719 28.5021 6.30121 29.5157C7.31523 30.5293 8.69 31.0991 10.1237 31.1ZM2.69769 14.1203L2.69775 14.1202L11.7393 4.18685C12.5781 3.26544 13.6897 2.76055 14.8699 2.76055C16.0501 2.76055 17.1616 3.26544 18.0004 4.18684L27.042 14.1202L27.0422 14.1204C27.418 14.5318 27.6881 14.9323 27.8391 15.2819C27.9918 15.6352 28.0151 15.918 27.93 16.1086L27.9298 16.109C27.8498 16.2899 27.6385 16.4541 27.2968 16.5731C26.9585 16.6908 26.5099 16.7578 25.9863 16.7578H23.2617H23.1617V16.8578V25.6936C23.1606 26.6337 22.7867 27.535 22.122 28.1997C21.4572 28.8645 20.556 29.2384 19.6159 29.2395H10.1239C9.18394 29.2382 8.28281 28.8643 7.61819 28.1995C6.95357 27.5348 6.57973 26.6336 6.57868 25.6936V16.8578V16.7578H6.47868H3.75407C3.23044 16.7578 2.7817 16.6907 2.4434 16.5729C2.10149 16.4538 1.89034 16.2896 1.81058 16.109L1.81048 16.1088C1.72608 15.919 1.74932 15.6365 1.90162 15.2831C2.05228 14.9335 2.32186 14.5326 2.69769 14.1203ZM19.406 22.228V22.2279C19.406 21.3308 19.14 20.4538 18.6415 19.7078C18.1431 18.9618 17.4347 18.3804 16.6058 18.0371C15.7769 17.6938 14.8649 17.6039 13.9849 17.779C13.105 17.954 12.2967 18.386 11.6624 19.0204C11.028 19.6548 10.5959 20.4631 10.4209 21.343C10.2459 22.2229 10.3357 23.135 10.679 23.9638C11.0224 24.7927 11.6038 25.5012 12.3497 25.9996C13.0957 26.498 13.9727 26.7641 14.8699 26.7641V26.6641L14.87 26.7641C16.0726 26.7628 17.2257 26.2845 18.076 25.4341C18.9264 24.5837 19.4048 23.4307 19.406 22.228ZM13.3834 20.0079C13.8234 19.714 14.3406 19.5571 14.8698 19.557C15.5792 19.5578 16.2593 19.8399 16.761 20.3415C17.2626 20.8432 17.5447 21.5233 17.5455 22.2327C17.5455 22.7619 17.3885 23.2791 17.0946 23.7191C16.8006 24.1591 16.3827 24.502 15.8938 24.7045C15.4049 24.907 14.8669 24.96 14.3479 24.8568C13.8289 24.7536 13.3522 24.4987 12.978 24.1245C12.6038 23.7504 12.349 23.2736 12.2457 22.7546C12.1425 22.2356 12.1955 21.6976 12.398 21.2087C12.6005 20.7198 12.9434 20.3019 13.3834 20.0079Z" fill="black" stroke="black" stroke-width="0.2"/>
</svg>
