<svg width="30" height="30" viewBox="0 0 30 30" fill="none" xmlns="http://www.w3.org/2000/svg">
<path d="M25.9536 0H4.04639C2.97531 0.00675783 1.95001 0.435243 1.19263 1.19263C0.435243 1.95001 0.00675783 2.97531 0 4.04639V25.9536C0.00675783 27.0247 0.435243 28.05 1.19263 28.8074C1.95001 29.5648 2.97531 29.9932 4.04639 30H25.9536C27.0247 29.9932 28.05 29.5648 28.8074 28.8074C29.5648 28.05 29.9932 27.0247 30 25.9536V4.04639C29.9932 2.97531 29.5648 1.95001 28.8074 1.19263C28.05 0.435243 27.0247 0.00675783 25.9536 0V0ZM28.0992 25.9536C28.0942 26.5211 27.8665 27.0639 27.4652 27.4652C27.0639 27.8665 26.5211 28.0942 25.9536 28.0992H4.04639C3.4789 28.0942 2.93608 27.8665 2.53479 27.4652C2.13349 27.0639 1.90582 26.5211 1.90077 25.9536V4.04639C1.90582 3.4789 2.13349 2.93608 2.53479 2.53479C2.93608 2.13349 3.4789 1.90582 4.04639 1.90077H25.9536C26.5211 1.90582 27.0639 2.13349 27.4652 2.53479C27.8665 2.93608 28.0942 3.4789 28.0992 4.04639V25.9536Z" fill="black"/>
<path d="M7 7H5V9H7V7Z" fill="black"/>
<path d="M24 7H10V9H24V7Z" fill="black"/>
<path d="M7 14H5V16H7V14Z" fill="black"/>
<path d="M24 14H10V16H24V14Z" fill="black"/>
<path d="M7 21H5V23H7V21Z" fill="black"/>
<path d="M24 21H10V23H24V21Z" fill="black"/>
</svg>
