<svg width="30" height="30" viewBox="0 0 30 30" fill="none" xmlns="http://www.w3.org/2000/svg">
<path d="M22.7154 24.9992C22.7154 22.7821 20.9905 20.9426 18.7659 20.7875C16.6151 20.6376 15.3198 20.5605 15 20.5605C14.6802 20.5605 13.3849 20.6376 11.2341 20.7875C9.00954 20.9426 7.28464 22.7821 7.28464 24.9992V25.8382C9.49508 27.4269 12.1618 28.2966 15 28.2966C17.8483 28.2966 20.5133 27.3684 22.7154 25.6755V24.9992ZM15 30C11.3938 30 8.12453 28.7547 5.57143 26.6754V24.9992C5.57143 21.8876 7.99223 19.306 11.1142 19.0883C13.325 18.9342 14.6202 18.8571 15 18.8571C15.3798 18.8571 16.675 18.9342 18.8858 19.0883C22.0078 19.306 24.4286 21.8876 24.4286 24.9992V26.4802C21.9012 28.6669 18.6376 30 15 30Z" fill="black"/>
<path d="M15 30C6.71684 30 0 23.2854 0 15C0 6.7146 6.71684 0 15 0C23.2832 0 30 6.7146 30 15C30 23.2854 23.2832 30 15 30ZM15 28.2744C22.3376 28.2744 28.2838 22.3301 28.2838 15C28.2838 7.66987 22.3376 1.7256 15 1.7256C7.66244 1.7256 1.71618 7.66987 1.71618 15C1.71618 22.3301 7.66244 28.2744 15 28.2744Z" fill="black"/>
<path d="M15 17.9999C11.6874 17.9999 8.99997 15.3147 8.99997 11.9999C8.99997 8.68505 11.6874 5.99988 15 5.99988C18.3126 5.99988 21 8.68505 21 11.9999C21 15.3147 18.3126 17.9999 15 17.9999ZM15 16.278C17.3685 16.278 19.2866 14.3615 19.2866 11.9999C19.2866 9.63828 17.3685 7.72179 15 7.72179C12.6314 7.72179 10.7133 9.63828 10.7133 11.9999C10.7133 14.3615 12.6314 16.278 15 16.278Z" fill="black"/>
</svg>
