<svg width="30" height="30" viewBox="0 0 30 30" fill="none" xmlns="http://www.w3.org/2000/svg">
<path d="M0.6 11.3848H10.7848C11.1164 11.3848 11.3848 11.1164 11.3848 10.7848V0.6C11.3848 0.268359 11.1164 0 10.7848 0H0.6C0.268359 0 0 0.268359 0 0.6V10.7848C0 11.1164 0.268359 11.3848 0.6 11.3848ZM1.2 1.2H10.1848V10.1848H1.2V1.2Z" fill="black"/>
<path d="M7.78477 3H3.6C3.26836 3 3 3.26836 3 3.6V7.78477C3 8.11641 3.26836 8.38477 3.6 8.38477H7.78477C8.11641 8.38477 8.38477 8.11641 8.38477 7.78477V3.6C8.38477 3.26836 8.11641 3 7.78477 3ZM7.18477 7.18477H4.2V4.2H7.18477V7.18477Z" fill="black"/>
<path d="M10.7848 18.6152H0.6C0.268359 18.6152 0 18.8836 0 19.2152V29.4C0 29.7316 0.268359 30 0.6 30H10.7848C11.1164 30 11.3848 29.7316 11.3848 29.4V19.2152C11.3848 18.8836 11.1164 18.6152 10.7848 18.6152ZM10.1848 28.8H1.2V19.8152H10.1848V28.8Z" fill="black"/>
<path d="M3.6 27H7.78477C8.11641 27 8.38477 26.7316 8.38477 26.4V22.2152C8.38477 21.8836 8.11641 21.6152 7.78477 21.6152H3.6C3.26836 21.6152 3 21.8836 3 22.2152V26.4C3 26.7316 3.26836 27 3.6 27ZM4.2 22.8152H7.18477V25.8H4.2V22.8152Z" fill="black"/>
<path d="M29.4 0H19.2152C18.8836 0 18.6152 0.268359 18.6152 0.6V10.7848C18.6152 11.1164 18.8836 11.3848 19.2152 11.3848H29.4C29.7316 11.3848 30 11.1164 30 10.7848V0.6C30 0.268359 29.7316 0 29.4 0ZM28.8 10.1848H19.8152V1.2H28.8V10.1848Z" fill="black"/>
<path d="M22.2152 8.38477H26.4C26.7316 8.38477 27 8.11641 27 7.78477V3.6C27 3.26836 26.7316 3 26.4 3H22.2152C21.8836 3 21.6152 3.26836 21.6152 3.6V7.78477C21.6152 8.11641 21.8836 8.38477 22.2152 8.38477ZM22.8152 4.2H25.8V7.18477H22.8152V4.2Z" fill="black"/>
<path d="M29.4 18.6152C29.0684 18.6152 28.8 18.8836 28.8 19.2152V28.8H19.2152C18.8836 28.8 18.6152 29.0684 18.6152 29.4C18.6152 29.7316 18.8836 30 19.2152 30H29.4C29.7316 30 30 29.7316 30 29.4V19.2152C30 18.8836 29.7316 18.6152 29.4 18.6152Z" fill="black"/>
<path d="M18.6152 26.4C18.6152 26.7316 18.8836 27 19.2152 27H26.4C26.7316 27 27 26.7316 27 26.4V19.2152C27 18.8836 26.7316 18.6152 26.4 18.6152C26.0684 18.6152 25.8 18.8836 25.8 19.2152V25.8H19.2152C18.8836 25.8 18.6152 26.0684 18.6152 26.4Z" fill="black"/>
<path d="M13.2445 15.525H3.56954C3.2379 15.525 2.96954 15.7934 2.96954 16.125C2.96954 16.4567 3.2379 16.725 3.56954 16.725H12.6445V22.05C12.6445 22.3817 12.9129 22.65 13.2445 22.65C13.5762 22.65 13.8445 22.3817 13.8445 22.05V16.125C13.8445 15.7934 13.5762 15.525 13.2445 15.525Z" fill="black"/>
<path d="M14.5945 3.52502C14.2629 3.52502 13.9945 3.79338 13.9945 4.12502V11.025C13.9945 11.3567 14.2629 11.625 14.5945 11.625C14.9262 11.625 15.1945 11.3567 15.1945 11.025V4.12502C15.1945 3.79338 14.9262 3.52502 14.5945 3.52502Z" fill="black"/>
<path d="M20.4445 13.65H16.5445C16.2129 13.65 15.9445 13.9184 15.9445 14.25C15.9445 14.5817 16.2129 14.85 16.5445 14.85H20.4445C20.7762 14.85 21.0445 14.5817 21.0445 14.25C21.0445 13.9184 20.7762 13.65 20.4445 13.65Z" fill="black"/>
<path d="M21.0445 22.05C21.0445 21.7184 20.7762 21.45 20.4445 21.45H16.5445C16.2129 21.45 15.9445 21.7184 15.9445 22.05V28.425C15.9445 28.7567 16.2129 29.025 16.5445 29.025C16.8762 29.025 17.1445 28.7567 17.1445 28.425V22.65H20.4445C20.7762 22.65 21.0445 22.3817 21.0445 22.05Z" fill="black"/>
<path d="M24.0445 20.25V15.6H28.0945C28.4262 15.6 28.6945 15.3317 28.6945 15C28.6945 14.6684 28.4262 14.4 28.0945 14.4H23.4445C23.1129 14.4 22.8445 14.6684 22.8445 15V20.25C22.8445 20.5817 23.1129 20.85 23.4445 20.85C23.7762 20.85 24.0445 20.5817 24.0445 20.25Z" fill="black"/>
<path d="M20.4445 17.4H17.6695C17.3379 17.4 17.0695 17.6684 17.0695 18C17.0695 18.3317 17.3379 18.6 17.6695 18.6H20.4445C20.7762 18.6 21.0445 18.3317 21.0445 18C21.0445 17.6684 20.7762 17.4 20.4445 17.4Z" fill="black"/>
<path d="M10.7848 12.675H4.54452C4.21288 12.675 3.94452 12.9433 3.94452 13.275C3.94452 13.6066 4.21288 13.875 4.54452 13.875H10.7848C11.1164 13.875 11.3848 13.6066 11.3848 13.275C11.3848 12.9433 11.1164 12.675 10.7848 12.675Z" fill="black"/>
</svg>
